<svg xmlns="http://www.w3.org/2000/svg" viewBox="0 0 206.814 206.814" xml:space="preserve"><path d="M129.244 52.316h-.936v-8.737a5 5 0 0 0-5-5h-1.535l-4.194-18.172a5 5 0 0 0-4.872-3.875h-3.903V5a5 5 0 1 0-10 0v11.531H94.9a5 5 0 0 0-4.872 3.875l-4.194 18.172H84.3a5 5 0 0 0-5 5v8.737h-.937a5 5 0 0 0-5 5v144.498a5 5 0 0 0 5 5h50.88a5 5 0 0 0 5-5V57.316a5 5 0 0 0-4.999-5m67.033 42.161-4.409-1.982v-6.746a5 5 0 0 0-5-5h-21.135l-14.74-6.625a5 5 0 0 0-7.05 4.56v123.129a5 5 0 0 0 5 5h45.283a5 5 0 0 0 5-5V99.037a5 5 0 0 0-2.949-4.56M57.869 101.5H12.587a5 5 0 0 0-5 5v95.314a5 5 0 0 0 5 5h45.282a5 5 0 0 0 5-5V106.5a5 5 0 0 0-5-5"/></svg>